# xmcd CD database file
#
# Track frame offsets:
#	150
#	46906
#	80497
#	100936
#	131195
#	165496
#	188730
#	204734
#
# Disc length: 3276 seconds
#
# Revision: 0
# Processed by: cddbd v1.5.1PL2 Copyright (c) Steve Scherf et al.
# Submitted via: CDex 1.51
#
DISCID=680cca08
DTITLE=Clare Fischer - Jazz Corps
DYEAR=1900
DGENRE=Jazz
TTITLE0=Cherokee
TTITLE1=Blueslied
TTITLE2=Corcovado Funebre
TTITLE3=Fuzz Blues
TTITLE4=The Herd Moves On
TTITLE5=Hey James!
TTITLE6=Konitz's Lover Man
TTITLE7=Neophonic Piece
EXTD=
EXTT0=
EXTT1=
EXTT2=
EXTT3=
EXTT4=
EXTT5=
EXTT6=
EXTT7=
PLAYORDER=
